<svg width="239" height="129" viewBox="0 0 239 129" fill="none" xmlns="http://www.w3.org/2000/svg">
<rect x="8.9873" y="4.5708" width="47.815" height="91.2112" transform="rotate(5.65476 8.9873 4.5708)" fill="#820101"/>
<rect x="137.819" y="32.1346" width="49.6149" height="64.6497" fill="white"/>
<path d="M45.0364 61.9503C44.416 67.8889 43.83 72.0841 43.2786 74.5361C42.7541 76.9663 41.6427 79.1261 39.9445 81.0154C38.2706 82.9072 36.123 84.2698 33.5018 85.1031C30.8805 85.9364 27.9027 86.1789 24.5684 85.8306C21.4044 85.5 18.6102 84.6914 16.1858 83.4048C13.7883 82.0963 11.931 80.3276 10.6138 78.0987C9.29663 75.8697 8.61915 73.5231 8.58137 71.0588C8.54358 68.5944 8.84253 64.32 9.47821 58.2354L10.5347 48.1229C11.1551 42.1843 11.7276 38 12.2522 35.5698C12.8036 33.1178 13.9162 30.9459 15.5901 29.054C17.2883 27.1647 19.4481 25.8034 22.0693 24.9701C24.6906 24.1368 27.6684 23.8943 31.0027 24.2426C34.1667 24.5732 36.9474 25.3927 39.3449 26.7011C41.7693 27.9878 43.6401 29.7456 44.9573 31.9745C46.2745 34.2035 46.952 36.5501 46.9897 39.0144C47.0275 41.4788 46.7286 45.7532 46.0929 51.8378L45.0364 61.9503ZM31.6959 40.9227C31.9832 38.1725 32.0081 36.4036 31.7705 35.616C31.5598 34.8067 30.9799 34.3524 30.0307 34.2533C29.2275 34.1694 28.5738 34.4209 28.0696 35.008C27.5923 35.5732 27.1947 37.3769 26.8769 40.4192L23.9935 68.0188C23.6349 71.4505 23.5476 73.5819 23.7314 74.413C23.9395 75.2467 24.5547 75.7169 25.5769 75.8237C26.6235 75.9331 27.3411 75.5406 27.7298 74.6462C28.1184 73.7519 28.4946 71.5645 28.8582 68.0842L31.6959 40.9227Z" fill="white"/>
<path d="M108.937 75.723C108.937 80.0984 108.526 83.8718 107.704 87.0432C106.911 90.1852 105.736 92.7987 104.18 94.8836C101.126 98.9359 96.5453 100.962 90.4374 100.962C87.1485 100.962 84.3736 100.257 82.1125 98.8479C79.8514 97.4383 78.0307 95.5003 76.6506 93.0336H75.8137L73.303 100.081H56.1686V95.28H56.7853C58.7527 95.28 60.3825 94.8689 61.6745 94.0467C62.9959 93.1951 63.6566 91.5066 63.6566 88.9813V42.3352C63.6566 39.8979 62.9813 38.2828 61.6305 37.49C60.3091 36.6971 58.6059 36.3007 56.521 36.3007H56.1686V31.5436H77.3554V46.9601C77.3554 47.8998 77.3113 49.001 77.2232 50.2637C77.1645 51.5264 77.0911 52.7157 77.003 53.8315C76.9442 54.4776 76.8855 55.1529 76.8268 55.8577C76.7681 56.5331 76.7093 57.2085 76.6506 57.8839H77.2673C78.5593 55.6521 80.2772 53.8903 82.4208 52.5982C84.5938 51.3061 87.3835 50.6601 90.7898 50.6601C96.7508 50.6601 101.244 52.6569 104.268 56.6506C107.381 60.791 108.937 67.1485 108.937 75.723ZM86.5612 57.3113C83.1255 57.3113 80.7029 58.8235 79.2934 61.8481C78.5887 63.3751 78.0895 65.2985 77.7958 67.6183C77.5022 69.9088 77.3554 72.6104 77.3554 75.723C77.3554 78.6889 77.5022 81.3317 77.7958 83.6515C78.0895 85.942 78.5887 87.8654 79.2934 89.4217C80.7029 92.6225 83.1549 94.2229 86.6493 94.2229C89.6152 94.2229 91.7588 92.6225 93.0802 89.4217C94.4017 86.1916 95.0624 81.596 95.0624 75.6349C95.0624 69.4683 94.4017 64.8727 93.0802 61.8481C91.7588 58.8235 89.5858 57.3113 86.5612 57.3113Z" fill="#820101"/>
<path d="M134.979 57.4324C132.604 57.0294 130.356 56.828 128.235 56.828C124.821 56.828 122.064 58.111 119.964 60.6772C117.864 63.2434 116.815 66.5094 116.815 70.4753V86.6357H111.089V64.3356C111.089 62.7238 110.94 60.8257 110.643 58.6412C110.367 56.4568 109.965 54.3148 109.434 52.2152H114.874C115.722 55.1419 116.231 57.7929 116.401 60.1682H116.56C117.621 57.7929 118.66 56.0539 119.678 54.9511C120.696 53.827 121.905 52.9893 123.304 52.4379C124.704 51.8653 126.411 51.579 128.426 51.579C130.632 51.579 132.816 51.7593 134.979 52.1198V57.4324Z" fill="white"/>
<path d="M168.064 64.2073L168.165 60.6992V57.1911C168.165 49.373 165.625 45.4639 160.547 45.4639C158.342 45.4639 156.604 46.2324 155.335 47.7693C154.132 49.2393 153.531 50.9767 153.531 52.9813C153.531 54.986 153.798 56.7233 154.333 58.1934C153.197 59.1957 151.626 59.6969 149.622 59.6969C147.617 59.6969 146.615 58.0598 146.615 54.7855C146.615 51.5113 147.884 48.7382 150.423 46.4663C153.03 44.1943 156.705 43.0584 161.449 43.0584C170.737 43.0584 175.381 48.5377 175.381 59.4964V80.044C175.381 83.6524 176.384 85.4565 178.388 85.4565C179.324 85.4565 180.126 85.0222 180.794 84.1535C181.529 83.2848 181.896 82.2825 181.896 81.1465C181.896 80.0106 181.796 78.9414 181.596 77.9391L183.5 77.6384C183.767 78.6407 183.901 79.7433 183.901 80.9461C183.901 83.3517 183.166 85.2561 181.696 86.6593C180.293 88.0626 178.422 88.7642 176.083 88.7642C173.744 88.7642 171.84 87.8287 170.37 85.9577C168.9 84.0199 168.165 81.1465 168.165 77.3377V75.5336C167.029 80.0774 165.224 83.4185 162.752 85.5568C160.28 87.695 157.406 88.7642 154.132 88.7642C150.925 88.7642 148.319 87.7619 146.314 85.7572C144.376 83.6858 143.407 80.9795 143.407 77.6384C143.407 74.2305 144.978 71.2236 148.118 68.6175C151.259 65.9447 155.769 64.6083 161.649 64.6083C162.919 64.6083 165.057 64.7753 168.064 65.1094V64.2073ZM156.437 84.9554C159.244 84.9554 161.75 83.3851 163.955 80.2445C166.227 77.037 167.563 72.56 167.964 66.8134C167.296 66.7465 166.36 66.7131 165.158 66.7131C159.812 66.7131 155.97 67.8491 153.631 70.121C151.359 72.3261 150.223 74.8988 150.223 77.8389C150.223 79.7767 150.791 81.4472 151.927 82.8505C153.063 84.2537 154.566 84.9554 156.437 84.9554Z" fill="black"/>
<path d="M204.663 32.6862L203.529 32.9903C200.929 33.6869 198.669 34.8498 196.749 36.4788C194.83 38.1079 193.488 40.0507 192.725 42.3073C191.962 44.5639 191.903 46.8977 192.549 49.3086C193.353 52.3105 195.419 54.7718 198.746 56.6925C200.201 57.4931 201.527 58.1386 202.723 58.6289C203.942 59.113 205.754 59.7799 208.161 60.6298C210.561 61.4561 212.484 62.1568 213.93 62.732C215.394 63.2772 216.623 63.8472 217.618 64.4418C220.316 65.9991 222.016 68.0896 222.719 70.7133C223.2 72.5097 223.169 74.3801 222.626 76.3243C222.101 78.2385 221.047 79.9777 219.464 81.5417C217.899 83.0757 215.867 84.1902 213.368 84.8852L213.472 85.2752C216.381 84.5971 218.81 83.4017 220.758 81.6891C222.729 79.9701 224.062 78.0423 224.756 75.9056C225.474 73.7625 225.573 71.7219 225.054 69.7837C224.604 68.1055 223.924 66.6537 223.013 65.4284C222.102 64.2032 220.732 63.0628 218.904 62.0073C217.855 61.4017 216.059 60.6543 213.515 59.7651C210.965 58.8524 208.392 57.9459 205.794 57.0458C203.191 56.1221 201.251 55.3118 199.975 54.615C196.834 52.8218 194.868 50.4479 194.077 47.4933C193.38 44.8932 193.853 42.1696 195.497 39.3224C197.165 36.4689 200.252 34.375 204.758 33.0408L204.663 32.6862ZM197.89 76.7582L202.922 84.7582C204.434 85.0118 206.138 85.087 208.036 84.9838C209.958 84.8743 211.577 84.6304 212.894 84.2521C214.667 83.7771 216.204 83.036 217.505 82.0287C218.829 81.0152 219.826 79.9121 220.494 78.7197C221.186 77.5208 221.622 76.264 221.802 74.9492C221.975 73.6107 221.91 72.3742 221.606 71.2396C220.979 68.8995 219.658 67.138 217.644 65.9551C215.629 64.7721 212.419 63.4282 208.013 61.9234C203.631 60.4122 200.376 59.0424 198.248 57.8138C196.407 56.711 194.933 55.5101 193.825 54.211C192.71 52.8882 191.906 51.305 191.412 49.4613C190.867 47.4285 190.881 45.2588 191.454 42.9519C192.026 40.6451 193.293 38.5196 195.255 36.5752C197.211 34.6072 199.878 33.1704 203.258 32.2647C204.795 31.853 206.448 31.4987 208.218 31.2018C209.981 30.8813 211.194 30.6324 211.856 30.4551C212.417 30.2794 212.945 30.1251 213.442 29.9921C213.932 29.8354 214.315 29.7073 214.593 29.6077C214.887 29.4781 215.194 29.3453 215.512 29.2093L218.974 41.2781L218.513 41.4016L214.085 33.8099C210.413 33.2484 207.36 33.2938 204.925 33.9462C202.892 34.4909 201.165 35.3717 199.743 36.5887C198.338 37.7758 197.367 39.1633 196.83 40.7513C196.287 42.3156 196.24 43.9369 196.689 45.6151C197.158 47.3643 198.191 48.8101 199.79 49.9526C201.381 51.0714 203.404 52.0494 205.858 52.8867C208.335 53.7176 210.977 54.5932 213.782 55.5135C216.611 56.4276 218.94 57.4123 220.768 58.4678C224.334 60.5269 226.612 63.4002 227.6 67.0875C228.157 69.1676 228.19 71.4642 227.698 73.9774C227.199 76.467 225.868 78.8251 223.703 81.0519C221.538 83.2786 218.411 84.9399 214.322 86.0356C212.88 86.4219 211.097 86.811 208.973 87.2029C206.872 87.5885 205.337 87.9111 204.368 88.1707C203.919 88.2911 203.568 88.3979 203.314 88.4912C203.084 88.5782 202.715 88.715 202.208 88.9016C201.7 89.0882 201.4 89.1942 201.305 89.2195L197.394 76.8912L197.89 76.7582Z" fill="#820101"/>
</svg>
