<svg width="242" height="135" viewBox="0 0 242 135" fill="none" xmlns="http://www.w3.org/2000/svg">
<rect x="9.75236" width="51.8847" height="98.9745" transform="rotate(5.65476 9.75236 0)" fill="#820101"/>
<rect x="150.332" y="44.1895" width="53.8378" height="70.1523" fill="white"/>
<path d="M14.7323 20.2613L26.5375 21.4946C34.4076 22.3169 39.6974 23.1766 42.407 24.0737C45.143 24.9736 47.2514 26.769 48.7324 29.4601C50.2425 32.1275 50.7119 36.1946 50.1408 41.6614C49.6193 46.6528 48.6483 49.942 47.2277 51.529C45.8071 53.1159 43.2566 53.8907 39.5761 53.8533C42.7918 55.0169 44.8957 56.3446 45.8879 57.8366C46.88 59.3285 47.4475 60.6693 47.5901 61.8589C47.762 63.0249 47.5775 66.1961 47.0368 71.3724L45.2695 88.2878L29.7802 86.6696L32.0068 65.3569C32.3655 61.9236 32.3103 59.7687 31.8413 58.892C31.3986 58.0181 30.0284 57.4612 27.7308 57.2211L24.7095 86.1398L8.03175 84.3974L14.7323 20.2613ZM30.2637 32.977L28.7737 47.2382C30.6488 47.4341 31.9823 47.3198 32.7742 46.8953C33.5953 46.4471 34.1534 44.8101 34.4487 41.9843L34.817 38.4586C35.0295 36.425 34.7991 35.0527 34.1258 34.3416C33.479 33.6333 32.1916 33.1784 30.2637 32.977Z" fill="white"/>
<path d="M94.3843 80.5878L91.1097 71.2642H68.4601L65.7767 79.2689C65.5341 80.0269 65.2764 80.9214 65.0035 81.9523C64.7609 82.9528 64.6396 83.8322 64.6396 84.5902C64.6396 85.7424 65.0641 86.6368 65.9131 87.2736C66.7621 87.88 67.7475 88.1832 68.8694 88.1832H72.7808V93.1406H48.5393V88.1832H49.6764C51.5562 88.1832 53.0268 87.6829 54.088 86.6823C55.1493 85.6817 56.165 83.9231 57.1353 81.4065L77.3289 26.6472H90.1091L109.575 81.4975C110.394 83.8322 111.349 85.5301 112.44 86.5913C113.532 87.6526 114.927 88.1832 116.625 88.1832H118.307V93.1406H87.5621V88.1832H91.2006C92.2315 88.1832 93.1563 87.8951 93.975 87.319C94.7936 86.7126 95.203 85.803 95.203 84.5902C95.203 83.8322 95.112 83.1045 94.9301 82.4071C94.7482 81.7097 94.5662 81.1033 94.3843 80.5878ZM70.4158 65.5791H89.2449L84.333 50.2974C83.9691 49.1149 83.5295 47.6746 83.014 45.9767C82.4986 44.2484 81.9983 42.5201 81.5132 40.7918C81.0583 39.0332 80.6945 37.5475 80.4216 36.3347C80.1184 37.4262 79.6787 38.8058 79.1027 40.4735C78.5569 42.1411 77.9808 43.8239 77.3744 45.5219C76.7983 47.2198 76.3131 48.6601 75.919 49.8426L70.4158 65.5791Z" fill="white"/>
<path d="M126.725 70.086L129.782 47.761C130.24 44.4198 130.288 42.0504 129.927 40.6526C129.59 39.2362 128.717 38.4314 127.307 38.2383C125.918 38.0481 124.647 38.935 123.494 40.899C122.363 42.8659 121.554 45.6284 121.066 49.1865L118.361 68.9406L112.861 68.1874L116.654 40.4927C117.215 36.3922 117.493 33.8774 117.488 32.9484L122.337 33.6124L121.966 37.7722L121.752 39.3343L121.817 39.3432C122.858 37.2312 124.011 35.7535 125.276 34.91C126.544 34.0448 128.024 33.7281 129.716 33.9598C131.625 34.2213 132.975 34.9366 133.765 36.1057C134.577 37.2779 135.041 38.9769 135.156 41.203L135.221 41.2119C136.404 39.031 137.659 37.5341 138.986 36.7212C140.334 35.9112 141.931 35.6326 143.775 35.8851C146.335 36.2357 148.041 37.4197 148.891 39.437C149.742 41.4544 149.857 44.7303 149.237 49.2647L146.023 72.7288L140.556 71.9801L143.613 49.655C144.071 46.3139 144.119 43.9444 143.758 42.5467C143.421 41.1303 142.548 40.3255 141.138 40.1324C139.706 39.9363 138.442 40.6915 137.346 42.3981C136.272 44.1076 135.486 46.7849 134.986 50.4298L132.192 70.8347L126.725 70.086Z" fill="#820101"/>
<path d="M181.644 75.8149L181.747 72.1926V68.5703C181.747 60.4977 179.125 56.4614 173.882 56.4614C171.605 56.4614 169.811 57.2548 168.5 58.8417C167.258 60.3597 166.637 62.1536 166.637 64.2235C166.637 66.2934 166.913 68.0873 167.465 69.6052C166.292 70.6402 164.671 71.1576 162.601 71.1576C160.531 71.1576 159.496 69.4672 159.496 66.0864C159.496 62.7055 160.807 59.8422 163.429 57.4963C166.119 55.1504 169.914 53.9775 174.813 53.9775C184.404 53.9775 189.199 59.6352 189.199 70.9506V92.1671C189.199 95.8929 190.234 97.7558 192.304 97.7558C193.27 97.7558 194.098 97.3073 194.788 96.4104C195.547 95.5134 195.926 94.4785 195.926 93.3055C195.926 92.1326 195.823 91.0286 195.616 89.9937L197.582 89.6832C197.858 90.7182 197.996 91.8566 197.996 93.0985C197.996 95.5824 197.237 97.5488 195.719 98.9977C194.27 100.447 192.338 101.171 189.923 101.171C187.508 101.171 185.542 100.205 184.024 98.2733C182.506 96.2724 181.747 93.3055 181.747 89.3727V87.5098C180.574 92.2016 178.711 95.6514 176.158 97.8593C173.606 100.067 170.639 101.171 167.258 101.171C163.946 101.171 161.255 100.136 159.185 98.0663C157.184 95.9274 156.184 93.133 156.184 89.6832C156.184 86.1644 157.805 83.0595 161.048 80.3687C164.291 77.6088 168.948 76.2289 175.02 76.2289C176.331 76.2289 178.539 76.4014 181.644 76.7464V75.8149ZM169.638 97.2383C172.536 97.2383 175.124 95.6169 177.4 92.3741C179.746 89.0622 181.126 84.4395 181.54 78.5058C180.85 78.4368 179.884 78.4023 178.642 78.4023C173.123 78.4023 169.155 79.5752 166.74 81.9211C164.395 84.198 163.222 86.8543 163.222 89.8902C163.222 91.8911 163.808 93.616 164.981 95.0649C166.154 96.5139 167.706 97.2383 169.638 97.2383Z" fill="black"/>
<path d="M217.691 82.4397C214.297 82.8261 210.799 82.287 207.194 80.8224C205.999 80.3856 205.196 80.1906 204.784 80.2375C204.013 80.3253 203.663 80.912 203.735 81.9976L203.78 83.0861L202.315 83.2529L200.849 70.3734L202.237 70.2153C203.15 74.1216 204.949 76.8854 207.634 78.5068C210.364 80.0709 213.426 80.6598 216.819 80.2734C220.264 79.8812 222.755 78.6601 224.292 76.6101C225.881 74.5542 226.532 72.2666 226.245 69.7473C225.789 65.7369 223.13 62.9668 218.268 61.4371L208.625 58.3945C205.708 57.4767 203.436 56.0428 201.807 54.0928C200.173 52.0915 199.216 49.8568 198.935 47.3889C198.507 43.6356 199.401 40.2787 201.616 37.3182C203.825 34.3064 207.295 32.5312 212.025 31.9926C214.801 31.6765 217.76 32.277 220.902 33.7943C221.943 34.2486 222.644 34.4553 223.004 34.4143C223.672 34.3382 223.97 33.7574 223.899 32.6718L223.8 31.1206L225.266 30.9538L226.785 44.296L225.397 44.4541C224.535 40.5419 222.918 37.7833 220.548 36.1782C218.224 34.5159 215.519 33.8603 212.434 34.2116C209.4 34.557 207.132 35.6746 205.628 37.5645C204.17 39.3971 203.564 41.3932 203.81 43.5526C204.05 45.6606 204.832 47.4986 206.157 49.0665C207.533 50.6286 209.407 51.7692 211.781 52.4886L221.501 55.5223C224.744 56.5593 227.265 58.1211 229.065 60.2077C230.911 62.2371 231.98 64.5372 232.273 67.108C232.688 70.7584 231.583 74.0873 228.957 77.0946C226.331 80.1019 222.575 81.8836 217.691 82.4397Z" fill="#820101"/>
</svg>
